<svg xmlns="http://www.w3.org/2000/svg">
    <symbol id="history" viewBox="0 0 24 24" fill="currentColor">
        <path d="M22.7 11.5L20.7005 13.5L18.7 11.5M20.9451 13C20.9814 12.6717 21 12.338 21 12C21 7.02944 16.9706 3 12 3C7.02944 3 3 7.02944 3 12C3 16.9706 7.02944 21 12 21C14.8273 21 17.35 19.6963 19 17.6573M12 7V12L15 14" stroke="currentColor" stroke-width="2" stroke-linecap="round" stroke-linejoin="round"/>
    </symbol>
    <symbol id="trigonometry" viewBox="0 0 24 24" fill="currentColor">
        <path d="M12 4C10.6193 4 9.5 5.11929 9.5 6.5C9.5 7.88071 10.6193 9 12 9C13.3807 9 14.5 7.88071 14.5 6.5C14.5 5.11929 13.3807 4 12 4ZM12 4V2M21 14.9375C18.8012 17.4287 15.5841 19 12 19C8.41592 19 5.19883 17.4287 3 14.9375M10.7448 8.66169L3 22M13.2552 8.66169L21 22" stroke="currentColor" stroke-width="2" stroke-linecap="round" stroke-linejoin="round"/>
    </symbol>
    <symbol id="delete" viewBox="0 0 24 24" fill="currentColor">
        <path d="M17 9L11 15M11 9L17 15M2.72 12.96L7.04 18.72C7.392 19.1893 7.568 19.424 7.79105 19.5932C7.9886 19.7432 8.21232 19.855 8.45077 19.9231C8.72 20 9.01334 20 9.6 20H17.2C18.8802 20 19.7202 20 20.362 19.673C20.9265 19.3854 21.3854 18.9265 21.673 18.362C22 17.7202 22 16.8802 22 15.2V8.8C22 7.11984 22 6.27976 21.673 5.63803C21.3854 5.07354 20.9265 4.6146 20.362 4.32698C19.7202 4 18.8802 4 17.2 4H9.6C9.01334 4 8.72 4 8.45077 4.07689C8.21232 4.14499 7.9886 4.25685 7.79105 4.40675C7.568 4.576 7.392 4.81067 7.04 5.28L2.72 11.04C2.46181 11.3843 2.33271 11.5564 2.28294 11.7454C2.23902 11.9123 2.23902 12.0877 2.28294 12.2546C2.33271 12.4436 2.46181 12.6157 2.72 12.96Z" stroke="currentColor" stroke-width="2" stroke-linecap="round" stroke-linejoin="round"/>
    </symbol>
</svg>
